<?xml version="1.0" encoding="UTF-8"?>
<svg id="_レイヤー_2" data-name="レイヤー 2" xmlns="http://www.w3.org/2000/svg" viewBox="0 0 512 512">
  <defs>
    <style>
      .cls-1 {
        fill: none;
        stroke: #fff;
        stroke-miterlimit: 10;
        stroke-width: 10px;
      }
    </style>
  </defs>
  <path class="cls-1" d="m103.93,266.12c-5.1,28.36-5.1,27.86,25.53,52.34"/>
  <path class="cls-1" d="m120.52,322.28c-28.08,17.87-28.08,25.53-29.36,30.64-3.73,14.91-17.87,15.32-28.08,28.08-8.5,10.63-11.18,17.79-1.28,15.32,20.42-5.11,31.91-12.77,35.74-15.32"/>
  <path class="cls-1" d="m138.39,326.11c-2.55,10.21-7.66,17.87-22.98,29.36-12.3,9.22-14.04,30.64-19.15,37.02-7.97,9.97-32.33,37.88-24.25,45.95,2.55,2.55,16.59-6.38,22.98-14.04,9.79-11.75,19.46-25.88,25.53-31.91,8.58-8.53,30.64-1.28,39.57-14.04,9.85-14.07,12.77-19.15,20.42-31.91"/>
  <path class="cls-1" d="m180.52,337.6s19.15,10.21,43.4,10.21c21.74,0,49.78-1.28,61.27-5.11"/>
  <path class="cls-1" d="m263.49,352.92s23.73,31.04,37.02,37.02c13.29,5.98,23.04.53,34.47,8.94,11.43,8.4,33.56,46.32,40.85,40.85,7.28-5.47.48-21.53-3.59-33.74-4.07-12.21-10.98-37.29-10.98-37.29"/>
  <path class="cls-1" d="m172.86,186.97c6.32,22.13,15.32,35.74,38.3,37.02,26.32,1.46,56.09-11.73,100.84-8.94,20.42,1.28,57.41,9.69,67.66,14.04,21.28,9.05,34.47,37.02,38.3,61.27,2.56,16.22,2.55,41.22,2.55,44.68"/>
  <path class="cls-1" d="m302.42,346.84s68.96,22.06,75.01,26.2,25.21-4.14,28.39,0,38.54,40.85,40.2,42.43c12.44,11.89,37.47,11.3,28.39-2.82-7.07-10.99-39.48-73.72-39.48-73.72,0,0-36.81,8.99-42.22,0"/>
  <path class="cls-1" d="m166.48,175.48c15.32-14.04,39.52-28.45,65.1-56.17,15.32-16.59-12.77-39.57-33.19-19.15-17.94,17.94-26.81,35.74-43.4,66.38"/>
  <path class="cls-1" d="m142.22,158.89c-25.84-12.36-49.63,2.54-65.1,7.66l-37.02,38.3c-15.5,25.83,14.04,30.64,17.87,43.4s13.83,12.45,29.36,12.77c9.4.19,30.52-7.26,34.47-11.49"/>
  <path class="cls-1" d="m209.88,88.68c7.66-19.15-17.87-24.25-38.3-3.83-17.94,17.94-8.94,39.57-25.53,70.21"/>
  <path class="cls-1" d="m403.39,243.76s3.73-9.43,12.75-9.65c10.29-.25,15.21,11.06,11.67,17.61-3.03,5.62-13.13,7.13-13.13,7.13"/>
</svg>